M48
; DRILL file {KiCad 8.0.5} date 2024-12-08T10:15:40-0500
; FORMAT={-:-/ absolute / inch / decimal}
; #@! TF.CreationDate,2024-12-08T10:15:40-05:00
; #@! TF.GenerationSoftware,Kicad,Pcbnew,8.0.5
; #@! TF.FileFunction,Plated,1,2,PTH
FMAT,2
INCH
; #@! TA.AperFunction,Plated,PTH,ComponentDrill
T1C0.0236
; #@! TA.AperFunction,Plated,PTH,ComponentDrill
T2C0.0276
; #@! TA.AperFunction,Plated,PTH,ComponentDrill
T3C0.0295
; #@! TA.AperFunction,Plated,PTH,ComponentDrill
T4C0.0315
; #@! TA.AperFunction,Plated,PTH,ComponentDrill
T5C0.0354
; #@! TA.AperFunction,Plated,PTH,ComponentDrill
T6C0.0433
; #@! TA.AperFunction,Plated,PTH,ComponentDrill
T7C0.0591
; #@! TA.AperFunction,Plated,PTH,ComponentDrill
T8C0.1260
%
G90
G05
T1
X3.7513Y-2.46
X3.83Y-2.46
X4.35Y-2.1
X4.4013Y-2.55
X4.4287Y-2.1
X4.48Y-2.55
T2
X3.1089Y-2.6092
X3.1089Y-2.71
T3
X3.17Y-2.07
X3.17Y-2.12
X3.17Y-2.17
T4
X3.2808Y-2.85
X3.29Y-2.71
X3.3506Y-2.143
X3.3792Y-2.85
X3.39Y-2.71
X3.4506Y-2.243
X3.51Y-2.67
X3.5506Y-2.143
X3.81Y-2.67
X3.82Y-2.3
X3.83Y-2.02
X3.83Y-2.16
X3.92Y-2.3
X3.93Y-2.02
X3.93Y-2.16
X3.95Y-2.46
X3.95Y-2.56
X3.95Y-2.66
X3.95Y-2.76
X4.02Y-2.9189
X4.02Y-3.0189
X4.0508Y-2.02
X4.0508Y-2.14
X4.0508Y-2.26
X4.1492Y-2.02
X4.1492Y-2.14
X4.1492Y-2.26
X4.18Y-2.9189
X4.18Y-3.0189
X4.25Y-2.46
X4.25Y-2.56
X4.25Y-2.66
X4.25Y-2.76
X4.33Y-3.11
X4.3608Y-2.93
X4.3789Y-2.76
X4.43Y-3.11
X4.4592Y-2.93
X4.4789Y-2.76
X4.5708Y-2.1
X4.6692Y-2.1
T5
X3.58Y-2.3698
X3.58Y-2.4698
X4.6416Y-3.1622
X4.74Y-3.0637
X4.8384Y-3.1622
T6
X3.51Y-2.88
X3.51Y-3.07
X3.81Y-2.88
X3.81Y-3.07
X4.34Y-2.31
X4.64Y-2.31
X4.64Y-2.84
X4.74Y-2.84
X4.84Y-2.84
T7
X4.87Y-2.06
X4.87Y-2.2296
X4.87Y-2.4198
X4.87Y-2.61
T8
X3.26Y-3.04
M30
